{
	"patcher" : 	{
		"fileversion" : 1,
		"appversion" : 		{
			"major" : 8,
			"minor" : 1,
			"revision" : 8,
			"architecture" : "x64",
			"modernui" : 1
		}
,
		"classnamespace" : "box",
		"rect" : [ 34.0, 77.0, 1468.0, 713.0 ],
		"bglocked" : 0,
		"openinpresentation" : 0,
		"default_fontsize" : 12.0,
		"default_fontface" : 0,
		"default_fontname" : "Arial",
		"gridonopen" : 1,
		"gridsize" : [ 15.0, 15.0 ],
		"gridsnaponopen" : 1,
		"objectsnaponopen" : 1,
		"statusbarvisible" : 2,
		"toolbarvisible" : 1,
		"lefttoolbarpinned" : 0,
		"toptoolbarpinned" : 0,
		"righttoolbarpinned" : 0,
		"bottomtoolbarpinned" : 0,
		"toolbars_unpinned_last_save" : 0,
		"tallnewobj" : 0,
		"boxanimatetime" : 200,
		"enablehscroll" : 1,
		"enablevscroll" : 1,
		"devicewidth" : 0.0,
		"description" : "",
		"digest" : "",
		"tags" : "",
		"style" : "",
		"subpatcher_template" : "",
		"assistshowspatchername" : 0,
		"boxes" : [ 			{
				"box" : 				{
					"id" : "obj-451",
					"maxclass" : "comment",
					"numinlets" : 1,
					"numoutlets" : 0,
					"patching_rect" : [ 389.062145789464239, 112.262709736824036, 71.5, 20.0 ],
					"presentation_linecount" : 2,
					"text" : "Thickness"
				}

			}
, 			{
				"box" : 				{
					"id" : "obj-450",
					"maxclass" : "message",
					"numinlets" : 2,
					"numoutlets" : 1,
					"outlettype" : [ "" ],
					"patching_rect" : [ 513.728812456130981, 119.762709736824036, 50.0, 22.0 ],
					"text" : "open"
				}

			}
, 			{
				"box" : 				{
					"fontname" : "Arial",
					"fontsize" : 13.0,
					"format" : 6,
					"id" : "obj-448",
					"maxclass" : "flonum",
					"maximum" : 10.0,
					"minimum" : 0.1,
					"numinlets" : 1,
					"numoutlets" : 2,
					"outlettype" : [ "", "bang" ],
					"parameter_enable" : 0,
					"patching_rect" : [ 392.395479122797951, 136.762709736824036, 54.0, 23.0 ]
				}

			}
, 			{
				"box" : 				{
					"id" : "obj-410",
					"maxclass" : "newobj",
					"numinlets" : 4,
					"numoutlets" : 1,
					"outlettype" : [ "" ],
					"patching_rect" : [ 76.478812456130981, 178.262709736824036, 334.874999999999773, 22.0 ],
					"text" : "pak origin dot above 3"
				}

			}
, 			{
				"box" : 				{
					"id" : "obj-411",
					"maxclass" : "newobj",
					"numinlets" : 1,
					"numoutlets" : 1,
					"outlettype" : [ "" ],
					"patching_rect" : [ 76.478812456130981, 213.262709736824036, 129.0, 22.0 ],
					"text" : "prepend edit_plotstyle"
				}

			}
, 			{
				"box" : 				{
					"id" : "obj-303",
					"maxclass" : "comment",
					"numinlets" : 1,
					"numoutlets" : 0,
					"patching_rect" : [ 567.728812456130981, 173.262709736824036, 69.5, 20.0 ],
					"presentation_linecount" : 2,
					"text" : "how many?"
				}

			}
, 			{
				"box" : 				{
					"id" : "obj-300",
					"maxclass" : "number",
					"numinlets" : 1,
					"numoutlets" : 2,
					"outlettype" : [ "", "bang" ],
					"parameter_enable" : 0,
					"patching_rect" : [ 513.728812456130981, 173.262709736824036, 50.0, 22.0 ]
				}

			}
, 			{
				"box" : 				{
					"id" : "obj-297",
					"maxclass" : "newobj",
					"numinlets" : 1,
					"numoutlets" : 1,
					"outlettype" : [ "" ],
					"patching_rect" : [ 513.728812456130981, 213.262709736824036, 128.0, 22.0 ],
					"text" : "prepend create_plots"
				}

			}
, 			{
				"box" : 				{
					"id" : "obj-296",
					"maxclass" : "comment",
					"numinlets" : 1,
					"numoutlets" : 0,
					"patching_rect" : [ 284.062145789464239, 112.262709736824036, 53.5, 20.0 ],
					"text" : "Number"
				}

			}
, 			{
				"box" : 				{
					"id" : "obj-295",
					"maxclass" : "comment",
					"numinlets" : 1,
					"numoutlets" : 0,
					"patching_rect" : [ 166.770479122797497, 107.262709736824036, 53.5, 20.0 ],
					"text" : "Symbol"
				}

			}
, 			{
				"box" : 				{
					"id" : "obj-294",
					"maxclass" : "comment",
					"numinlets" : 1,
					"numoutlets" : 0,
					"patching_rect" : [ 48.478812456130981, 107.262709736824036, 53.5, 20.0 ],
					"text" : "Lines"
				}

			}
, 			{
				"box" : 				{
					"fontface" : 0,
					"fontname" : "Arial",
					"fontsize" : 13.0,
					"id" : "obj-287",
					"items" : [ "none", ",", "above", ",", "center", ",", "below" ],
					"maxclass" : "umenu",
					"numinlets" : 1,
					"numoutlets" : 3,
					"outlettype" : [ "int", "", "" ],
					"parameter_enable" : 0,
					"patching_rect" : [ 267.062145789464239, 136.762709736824036, 75.0, 23.0 ]
				}

			}
, 			{
				"box" : 				{
					"fontface" : 0,
					"fontname" : "Arial",
					"fontsize" : 13.0,
					"id" : "obj-289",
					"items" : [ "none", ",", "dot", ",", "circle", ",", "square" ],
					"maxclass" : "umenu",
					"numinlets" : 1,
					"numoutlets" : 3,
					"outlettype" : [ "int", "", "" ],
					"parameter_enable" : 0,
					"patching_rect" : [ 166.770479122797497, 136.762709736824036, 75.0, 23.0 ]
				}

			}
, 			{
				"box" : 				{
					"fontface" : 0,
					"fontname" : "Arial",
					"fontsize" : 13.0,
					"id" : "obj-291",
					"items" : [ "none", ",", "origin", ",", "linear", ",", "curve" ],
					"maxclass" : "umenu",
					"numinlets" : 1,
					"numoutlets" : 3,
					"outlettype" : [ "int", "", "" ],
					"parameter_enable" : 0,
					"patching_rect" : [ 48.478812456130981, 136.762709736824036, 75.0, 23.0 ]
				}

			}
, 			{
				"box" : 				{
					"id" : "obj-241",
					"maxclass" : "message",
					"numinlets" : 2,
					"numoutlets" : 1,
					"outlettype" : [ "" ],
					"patching_rect" : [ 709.125, 123.79660701751709, 173.0, 22.0 ],
					"text" : "45 50 70 20 10 color 1 0 0 1"
				}

			}
, 			{
				"box" : 				{
					"id" : "obj-242",
					"maxclass" : "message",
					"numinlets" : 2,
					"numoutlets" : 1,
					"outlettype" : [ "" ],
					"patching_rect" : [ 687.5, 94.79660701751709, 173.0, 22.0 ],
					"text" : "30 20 90 20 10 color 0 0 1 1"
				}

			}
, 			{
				"box" : 				{
					"id" : "obj-240",
					"maxclass" : "message",
					"numinlets" : 2,
					"numoutlets" : 1,
					"outlettype" : [ "" ],
					"patching_rect" : [ 725.375, 150.79660701751709, 168.0, 22.0 ],
					"text" : "49 90 5 20 10 color 0 1 0 1"
				}

			}
, 			{
				"box" : 				{
					"id" : "obj-185",
					"maxclass" : "newobj",
					"numinlets" : 1,
					"numoutlets" : 1,
					"outlettype" : [ "" ],
					"patching_rect" : [ 714.0, 217.79660701751709, 108.125, 22.0 ],
					"text" : "prepend add_data"
				}

			}
, 			{
				"box" : 				{
					"id" : "obj-111",
					"maxclass" : "message",
					"numinlets" : 2,
					"numoutlets" : 1,
					"outlettype" : [ "" ],
					"patching_rect" : [ 735.1875, 178.79660701751709, 197.75, 22.0 ],
					"text" : "50 50 50 20 10 color 0.5 0.5 0.5 1"
				}

			}
, 			{
				"box" : 				{
					"id" : "obj-109",
					"maxclass" : "message",
					"numinlets" : 2,
					"numoutlets" : 1,
					"outlettype" : [ "" ],
					"patching_rect" : [ 885.875, 266.0, 94.125, 22.0 ],
					"text" : "clear_all_data"
				}

			}
, 			{
				"box" : 				{
					"id" : "obj-96",
					"maxclass" : "message",
					"numinlets" : 2,
					"numoutlets" : 1,
					"outlettype" : [ "" ],
					"patching_rect" : [ 887.9375, 226.5, 90.0, 22.0 ],
					"text" : "clear_all_plots"
				}

			}
, 			{
				"box" : 				{
					"id" : "obj-51",
					"maxclass" : "newobj",
					"numinlets" : 1,
					"numoutlets" : 1,
					"outlettype" : [ "" ],
					"patching_rect" : [ 714.0, 309.0, 143.0, 22.0 ],
					"saved_object_attributes" : 					{
						"filename" : "at_pattern_multiplot.js",
						"parameter_enable" : 0
					}
,
					"text" : "js at_pattern_multiplot.js"
				}

			}
, 			{
				"box" : 				{
					"id" : "obj-488",
					"maxclass" : "dropfile",
					"numinlets" : 1,
					"numoutlets" : 2,
					"outlettype" : [ "", "" ],
					"patching_rect" : [ 40.0, 288.0, 623.0, 373.0 ]
				}

			}
, 			{
				"box" : 				{
					"filename" : "at_pattern_jsuiplot.js",
					"id" : "obj-506",
					"maxclass" : "jsui",
					"numinlets" : 1,
					"numoutlets" : 1,
					"outlettype" : [ "" ],
					"parameter_enable" : 0,
					"patching_rect" : [ 52.75, 302.0, 592.0, 345.0 ]
				}

			}
, 			{
				"box" : 				{
					"filename" : "at_pattern_jsuiplot.js",
					"id" : "obj-508",
					"maxclass" : "jsui",
					"numinlets" : 1,
					"numoutlets" : 1,
					"outlettype" : [ "" ],
					"parameter_enable" : 0,
					"patching_rect" : [ 52.75, 302.0, 592.0, 345.0 ]
				}

			}
, 			{
				"box" : 				{
					"filename" : "at_pattern_jsuiplot.js",
					"id" : "obj-510",
					"maxclass" : "jsui",
					"numinlets" : 1,
					"numoutlets" : 1,
					"outlettype" : [ "" ],
					"parameter_enable" : 0,
					"patching_rect" : [ 52.75, 302.0, 592.0, 345.0 ]
				}

			}
, 			{
				"box" : 				{
					"filename" : "at_pattern_jsuiplot.js",
					"id" : "obj-512",
					"maxclass" : "jsui",
					"numinlets" : 1,
					"numoutlets" : 1,
					"outlettype" : [ "" ],
					"parameter_enable" : 0,
					"patching_rect" : [ 52.75, 302.0, 592.0, 345.0 ]
				}

			}
 ],
		"lines" : [ 			{
				"patchline" : 				{
					"destination" : [ "obj-51", 0 ],
					"source" : [ "obj-109", 0 ]
				}

			}
, 			{
				"patchline" : 				{
					"destination" : [ "obj-185", 0 ],
					"source" : [ "obj-111", 0 ]
				}

			}
, 			{
				"patchline" : 				{
					"destination" : [ "obj-51", 0 ],
					"source" : [ "obj-185", 0 ]
				}

			}
, 			{
				"patchline" : 				{
					"destination" : [ "obj-185", 0 ],
					"source" : [ "obj-240", 0 ]
				}

			}
, 			{
				"patchline" : 				{
					"destination" : [ "obj-185", 0 ],
					"source" : [ "obj-241", 0 ]
				}

			}
, 			{
				"patchline" : 				{
					"destination" : [ "obj-185", 0 ],
					"source" : [ "obj-242", 0 ]
				}

			}
, 			{
				"patchline" : 				{
					"destination" : [ "obj-410", 2 ],
					"source" : [ "obj-287", 1 ]
				}

			}
, 			{
				"patchline" : 				{
					"destination" : [ "obj-410", 1 ],
					"source" : [ "obj-289", 1 ]
				}

			}
, 			{
				"patchline" : 				{
					"destination" : [ "obj-410", 0 ],
					"source" : [ "obj-291", 1 ]
				}

			}
, 			{
				"patchline" : 				{
					"destination" : [ "obj-51", 0 ],
					"source" : [ "obj-297", 0 ]
				}

			}
, 			{
				"patchline" : 				{
					"destination" : [ "obj-297", 0 ],
					"source" : [ "obj-300", 0 ]
				}

			}
, 			{
				"patchline" : 				{
					"destination" : [ "obj-411", 0 ],
					"source" : [ "obj-410", 0 ]
				}

			}
, 			{
				"patchline" : 				{
					"destination" : [ "obj-51", 0 ],
					"source" : [ "obj-411", 0 ]
				}

			}
, 			{
				"patchline" : 				{
					"destination" : [ "obj-410", 3 ],
					"source" : [ "obj-448", 0 ]
				}

			}
, 			{
				"patchline" : 				{
					"destination" : [ "obj-51", 0 ],
					"source" : [ "obj-96", 0 ]
				}

			}
 ],
		"dependency_cache" : [ 			{
				"name" : "at_pattern_jsuiplot.js",
				"bootpath" : "~/Documents/GitHub/thesis/src/code/max-js/extras",
				"patcherrelativepath" : ".",
				"type" : "TEXT",
				"implicit" : 1
			}
, 			{
				"name" : "at_pattern_multiplot.js",
				"bootpath" : "~/Documents/GitHub/thesis/src/code/max-js/extras",
				"patcherrelativepath" : ".",
				"type" : "TEXT",
				"implicit" : 1
			}
 ],
		"autosave" : 0
	}

}
